<?xml version="1.0" encoding="UTF-8" standalone="no"?>
<svg
   version="1.1"
   width="42"
   height="42"
   viewBox="0 0 21 21"
   xml:space="preserve"
   id="svg18"
   sodipodi:docname="shut-off.svg"
   inkscape:version="1.1 (c4e8f9ed74, 2021-05-24)"
   xmlns:inkscape="http://www.inkscape.org/namespaces/inkscape"
   xmlns:sodipodi="http://sodipodi.sourceforge.net/DTD/sodipodi-0.dtd"
   xmlns="http://www.w3.org/2000/svg"
   xmlns:svg="http://www.w3.org/2000/svg"><sodipodi:namedview
   id="namedview20"
   pagecolor="#ffffff"
   bordercolor="#666666"
   borderopacity="1.0"
   inkscape:pageshadow="2"
   inkscape:pageopacity="0.0"
   inkscape:pagecheckerboard="0"
   showgrid="false"
   inkscape:zoom="17.309524"
   inkscape:cx="20.971114"
   inkscape:cy="21"
   inkscape:window-width="3840"
   inkscape:window-height="1546"
   inkscape:window-x="0"
   inkscape:window-y="26"
   inkscape:window-maximized="1"
   inkscape:current-layer="svg18" />
<desc
   id="desc2">Created with Fabric.js 3.6.3</desc>
<defs
   id="defs4">
</defs>

<path
   style="fill:#000000;stroke:none;stroke-width:0.0288859"
   d="m 5.4835014,19.012623 v -0.982118 h 1.9931225 1.9931226 v -1.025157 -1.025156 l -4.1378955,-0.0075 -4.1378957,-0.0075 -0.1321691,-0.06513 C 0.85861567,15.799918 0.70852107,15.655222 0.59976907,15.45464 L 0.50069532,15.271908 V 8.5126223 1.7533376 l 0.0617385,-0.133522 C 0.63601422,1.4606831 0.80669432,1.2650921 0.95205297,1.1733312 1.219048,1.0047846 0.52472892,1.0156175 10.539459,1.0237474 l 9.170315,0.00744 0.162523,0.079845 c 0.191666,0.094162 0.408415,0.3149992 0.496672,0.5060402 l 0.06295,0.1362611 v 6.7448416 6.7448427 l -0.07713,0.164548 c -0.09399,0.200519 -0.27996,0.392173 -0.472454,0.486897 l -0.143676,0.0707 -4.137895,0.0075 -4.137896,0.0075 v 1.025156 1.025157 h 1.993123 1.993122 v 0.982118 0.982118 H 10.466307 5.4835014 Z M 18.482126,8.4981793 V 2.9809855 H 10.466307 2.450489 v 5.5171938 5.5171947 h 8.015818 8.015819 z"
   id="path59" /><text
   xml:space="preserve"
   style="font-size:10.1851px;line-height:1.25;font-family:sans-serif;stroke-width:0.763886"
   x="3.1383789"
   y="11.948104"
   id="text72384"
   transform="scale(0.9729541,1.0277977)"><tspan
     sodipodi:role="line"
     id="tspan72382"
     style="font-style:normal;font-variant:normal;font-weight:bold;font-stretch:normal;font-family:'Droid Sans';-inkscape-font-specification:'Droid Sans Bold';stroke-width:0.763886"
     x="3.1383789"
     y="11.948104">VM</tspan></text></svg>
